# xmcd
#
# Track frame offsets: 
#        150
#        12402
#        25234
#        37715
#        47366
#        61662
#        72854
#        84780
#        96879
#        106824
#        119884
#        130447
#        141635
#        152828
#        165506
#        176946
#        187019
#        198439
#        210186
#        222862
#        234969
#        245978
#        259816
#        272298
#        286940
#
# Disc length: 3978 seconds
#
# Revision: 1
# Processed by: cddbd v1.5.2PL0 Copyright (c) Steve Scherf et al.
# Submitted via: ExactAudioCopyFreeDBPlugin 1.0
#
DISCID=620f8819
DTITLE=Various Artist - Mod:  The Early Years [Real Gone Music]
DYEAR=2017
DGENRE=Rhythm and Blues
TTITLE0=John Lee Hooker - Walkin' the Boogie
TTITLE1=Muddy Waters - I Just Want to Make Love to You
TTITLE2=The Bobby Peterson Quintet - Irresistable You
TTITLE3=The Orlons - Tonight
TTITLE4=Elmore James - Dust My Blues
TTITLE5=Irma Thomas - I May Be Wrong
TTITLE6=The Fiestas - Broken Heart
TTITLE7=Billy Boy Arnold - I Wish You Would
TTITLE8=Dee Dee Sharp - Gee
TTITLE9=The Contours - Do You Love Me
TTITLE10=Clarence "Frogman" Henry - Ain't Got No Home
TTITLE11=Gene and Eunice - Bom Bom Lulu
TTITLE12=Bo Diddley - Who Do You Love
TTITLE13=The Falcons - The Teacher
TTITLE14=Marvin Gaye - Hitch Hike
TTITLE15=Dale Hawkins - Susie Q
TTITLE16=The Megatons - Shimmy, Shimmy Walk, Part 1
TTITLE17=The Donays - Devil in His Heart
TTITLE18=Marv Johnson - Tell Me That You Love Me
TTITLE19=Jackie Wilson - Reet Petite
TTITLE20=Rudy Ray Moore - The Buggy Ride
TTITLE21=Slim Harpo - I'm a King Bee
TTITLE22=King Curtis - Soul Twist
TTITLE23=Junior Wells - 'Bout the Break of Day
TTITLE24=Dion - Drip Drop
EXTD=
EXTT0=
EXTT1=
EXTT2=
EXTT3=
EXTT4=
EXTT5=
EXTT6=
EXTT7=
EXTT8=
EXTT9=
EXTT10=
EXTT11=
EXTT12=
EXTT13=
EXTT14=
EXTT15=
EXTT16=
EXTT17=
EXTT18=
EXTT19=
EXTT20=
EXTT21=
EXTT22=
EXTT23=
EXTT24=
PLAYORDER=
